<?xml version="1.0" encoding="iso-8859-1"?>
<!-- Generator: Adobe Illustrator 19.0.0, SVG Export Plug-In . SVG Version: 6.00 Build 0)  -->
<svg version="1.1" id="Layer_1" xmlns="http://www.w3.org/2000/svg" xmlns:xlink="http://www.w3.org/1999/xlink" x="0px" y="0px"
	 viewBox="0 0 512 512" style="enable-background:new 0 0 512 512;" xml:space="preserve">
<path style="fill:#77E1F9;" d="M256,0c141.393,0,256,114.607,256,256S397.393,512,256,512L53.895,256L256,0z"/>
<path style="fill:#BBF0FC;" d="M256,0v512C114.607,512,0,397.393,0,256S114.607,0,256,0z"/>
<path style="fill:#FE4E8E;" d="M256,50.087c113.729,0,205.913,92.184,205.913,205.913S369.729,461.913,256,461.913L93.437,256
	L256,50.087z"/>
<path style="fill:#FF76A8;" d="M256,50.087v311.652l-16.696,16.696L256,395.13v66.783c-113.729,0-205.913-92.184-205.913-205.913
	S142.271,50.087,256,50.087z"/>
<rect x="222.497" y="150.261" style="fill:#FFFFFF;" width="55.652" height="33.391"/>
<polygon style="fill:#F9C3D4;" points="289.282,150.261 289.282,116.87 255.891,116.87 255.891,217.043 289.282,217.043 
	289.282,183.652 322.674,183.652 322.674,150.261 "/>
<g>
	<polygon style="fill:#FFFFFF;" points="222.91,328.348 222.91,294.957 189.519,294.957 189.519,261.565 156.128,261.565 
		156.128,294.957 122.736,294.957 122.736,328.348 156.128,328.348 156.128,361.739 189.519,361.739 189.519,328.348 	"/>
	<rect x="222.497" y="361.739" style="fill:#FFFFFF;" width="33.391" height="33.391"/>
</g>
<g>
	<rect x="272.584" y="294.957" style="fill:#F9C3D4;" width="33.391" height="33.391"/>
	<rect x="361.628" y="239.304" style="fill:#F9C3D4;" width="33.391" height="33.391"/>
</g>
<rect x="122.323" y="194.783" style="fill:#FFFFFF;" width="33.391" height="33.391"/>
<g>
</g>
<g>
</g>
<g>
</g>
<g>
</g>
<g>
</g>
<g>
</g>
<g>
</g>
<g>
</g>
<g>
</g>
<g>
</g>
<g>
</g>
<g>
</g>
<g>
</g>
<g>
</g>
<g>
</g>
</svg>
