<?xml version="1.0" encoding="iso-8859-1"?>
<!-- Generator: Adobe Illustrator 19.0.0, SVG Export Plug-In . SVG Version: 6.00 Build 0)  -->
<svg version="1.1" id="Capa_1" xmlns="http://www.w3.org/2000/svg" xmlns:xlink="http://www.w3.org/1999/xlink" x="0px" y="0px"
	 viewBox="0 0 512 512" style="enable-background:new 0 0 512 512;" xml:space="preserve">
<path style="fill:#FFAC46;" d="M265.689,382.147l92-1.147v83.99c0,3.564-4.278,5.35-6.782,2.832L265.689,382.147z"/>
<path style="fill:#FFDD5C;" d="M378.181,403H133.819C59.913,403,0,343.087,0,269.181v-92.362C0,102.913,59.913,43,133.819,43
	h244.362C452.087,43,512,102.913,512,176.819v92.362C512,343.087,452.087,403,378.181,403z"/>
<path style="fill:#FFC200;" d="M378.076,43h-30.905c73.964,0,133.924,59.866,133.924,133.714v92.571
	c0,73.848-59.96,133.714-133.924,133.714h30.905C452.04,403,512,343.134,512,269.286v-92.571C512,102.866,452.04,43,378.076,43z"/>
<path style="fill:#FB1E43;" d="M199.355,306.314L199.355,306.314c-9.233,0-16.258-8.385-14.748-17.602l25.724-156.947
	c1.196-7.299,7.435-12.652,14.748-12.652l0,0c9.233,0,16.258,8.385,14.748,17.602l-25.724,156.947
	C212.906,300.962,206.667,306.314,199.355,306.314z"/>
<g>
	<path style="fill:#00E2FF;" d="M350.286,191.114H175.107c-8.521,0-15.429-6.908-15.429-15.429l0,0
		c0-8.521,6.908-15.429,15.429-15.429h175.179c8.521,0,15.429,6.908,15.429,15.429l0,0
		C365.714,184.207,358.807,191.114,350.286,191.114z"/>
	<path style="fill:#00E2FF;" d="M336.893,261.52H161.714c-8.521,0-15.429-6.908-15.429-15.429l0,0
		c0-8.521,6.908-15.429,15.429-15.429h175.179c8.521,0,15.429,6.908,15.429,15.429l0,0
		C352.322,254.613,345.414,261.52,336.893,261.52z"/>
</g>
<path style="fill:#FB1E43;" d="M291.041,306.314L291.041,306.314c-9.233,0-16.258-8.385-14.748-17.602l25.724-156.947
	c1.196-7.299,7.435-12.652,14.748-12.652l0,0c9.233,0,16.258,8.385,14.748,17.602l-25.724,156.947
	C304.593,300.962,298.353,306.314,291.041,306.314z"/>
<g>
</g>
<g>
</g>
<g>
</g>
<g>
</g>
<g>
</g>
<g>
</g>
<g>
</g>
<g>
</g>
<g>
</g>
<g>
</g>
<g>
</g>
<g>
</g>
<g>
</g>
<g>
</g>
<g>
</g>
</svg>
