<?xml version="1.0" encoding="iso-8859-1"?>
<!-- Generator: Adobe Illustrator 19.0.0, SVG Export Plug-In . SVG Version: 6.00 Build 0)  -->
<svg version="1.1" id="Capa_1" xmlns="http://www.w3.org/2000/svg" xmlns:xlink="http://www.w3.org/1999/xlink" x="0px" y="0px"
	 viewBox="0 0 512 512" style="enable-background:new 0 0 512 512;" xml:space="preserve">
<path style="fill:#0C61C6;" d="M512,431H0V81h512V431z"/>
<path style="fill:#0A4EAF;" d="M512,431H256V81h256V431z"/>
<g>
	<rect x="135" y="186" style="fill:#7D8AFF;" width="242" height="30"/>
	<rect x="135" y="246" style="fill:#7D8AFF;" width="242" height="30"/>
</g>
<polygon style="fill:#0A4EAF;" points="376,401 136,401 166,341 346,341 "/>
<polygon style="fill:#063E8B;" points="256,401 376,401 346,341 256,341 "/>
<g>
	<rect x="256" y="186" style="fill:#6E76E5;" width="121" height="30"/>
	<rect x="256" y="246" style="fill:#6E76E5;" width="121" height="30"/>
</g>
<path style="fill:#E6F9FF;" d="M135,276c-24.813,0-45-20.187-45-45s20.187-45,45-45s45,20.187,45,45S159.813,276,135,276z M135,216
	c-8.271,0-15,6.729-15,15s6.729,15,15,15s15-6.729,15-15S143.271,216,135,216z"/>
<path style="fill:#CCEFFF;" d="M377,276c-24.813,0-45-20.187-45-45s20.187-45,45-45s45,20.187,45,45S401.813,276,377,276z M377,216
	c-8.271,0-15,6.729-15,15s6.729,15,15,15s15-6.729,15-15S385.271,216,377,216z"/>
<g>
</g>
<g>
</g>
<g>
</g>
<g>
</g>
<g>
</g>
<g>
</g>
<g>
</g>
<g>
</g>
<g>
</g>
<g>
</g>
<g>
</g>
<g>
</g>
<g>
</g>
<g>
</g>
<g>
</g>
</svg>
