<?xml version="1.0" encoding="iso-8859-1"?>
<!-- Generator: Adobe Illustrator 19.0.0, SVG Export Plug-In . SVG Version: 6.00 Build 0)  -->
<svg version="1.1" id="Capa_1" xmlns="http://www.w3.org/2000/svg" xmlns:xlink="http://www.w3.org/1999/xlink" x="0px" y="0px"
	 viewBox="0 0 512 512" style="enable-background:new 0 0 512 512;" xml:space="preserve">
<path style="fill:#F2464F;" d="M348.5,246.567v259.252c0,3.414-2.761,6.181-6.167,6.181H169.667c-3.406,0-6.167-2.767-6.167-6.181
	V246.571c0-21.44,8.006-42.104,22.443-57.924l3.564-3.905c18.039-19.768,28.044-45.587,28.044-72.377V4.121
	c0-2.276,1.841-4.121,4.111-4.121h68.686c2.27,0,4.111,1.845,4.111,4.121v108.25c0,26.786,10.002,52.603,28.037,72.37l3.566,3.908
	C340.496,204.468,348.5,225.129,348.5,246.567z"/>
<path style="fill:#DB3747;" d="M326.062,188.649l-3.566-3.908c-18.035-19.767-28.037-45.583-28.037-72.369V4.121
	c0-2.276-1.841-4.121-4.111-4.121h-20.56c2.271,0,4.111,1.845,4.111,4.121v108.25c0,26.786,10.002,52.603,28.037,72.369l3.566,3.908
	c14.434,15.819,22.438,36.48,22.438,57.917v259.253c0,3.414-2.761,6.181-6.167,6.181h20.56c3.406,0,6.167-2.767,6.167-6.181V246.566
	C348.5,225.129,340.496,204.468,326.062,188.649z"/>
<g>
	<path style="fill:#71DB9E;" d="M294.459,4.121V60.76H217.54V4.121c0-2.277,1.85-4.121,4.111-4.121h68.697
		C292.609,0,294.459,1.844,294.459,4.121z"/>
	<rect x="163.5" y="251.67" style="fill:#71DB9E;" width="185" height="192.22"/>
</g>
<path style="fill:#62C473;" d="M294.459,4.121V60.76h-20.556V4.121c0-2.277-1.84-4.121-4.111-4.121h20.556
	C292.609,0,294.459,1.844,294.459,4.121z"/>
<rect x="163.5" y="274.53" style="fill:#FACB57;" width="185" height="146.49"/>
<rect x="327.94" y="251.67" style="fill:#62C473;" width="20.556" height="192.22"/>
<ellipse style="fill:#71DB9E;" cx="256" cy="347.78" rx="54.24" ry="51.32"/>
<path style="fill:#F2464F;" d="M284.589,349.091c0,14.213-12.8,24.006-28.589,24.006c-15.789,0-28.589-9.793-28.589-24.006
	s12.8-25.735,28.589-25.735C271.789,323.356,284.589,334.878,284.589,349.091z"/>
<rect x="327.94" y="274.53" style="fill:#F0AF46;" width="20.556" height="146.49"/>
<g>
	<path style="fill:#F2464F;" d="M244.098,48.192c-4.142,0-7.5-3.357-7.5-7.5V20.775c0-4.143,3.358-7.5,7.5-7.5s7.5,3.357,7.5,7.5
		v19.917C251.598,44.835,248.24,48.192,244.098,48.192z"/>
	<path style="fill:#F2464F;" d="M267.902,48.192c-4.142,0-7.5-3.357-7.5-7.5V20.775c0-4.143,3.358-7.5,7.5-7.5s7.5,3.357,7.5,7.5
		v19.917C275.402,44.835,272.044,48.192,267.902,48.192z"/>
</g>
<path style="fill:#FACB57;" d="M256.056,331.279c-3.636,0-6.662-2.235-7.274-5.809c-0.334-0.618-1.287-1.465-3.99-1.366
	c-4.139,0.145-7.616-3.087-7.764-7.227c-0.148-4.14,3.087-7.615,7.227-7.764c4.746-0.172,8.479,0.958,11.342,2.664
	c2.596-1.603,6.031-2.682,10.51-2.682c4.142,0,7.5,3.357,7.5,7.5s-3.358,7.5-7.5,7.5c-1.87,0-2.583,0.415-2.718,0.555
	c-0.603,3.539-3.534,6.547-7.138,6.626C256.186,331.278,256.12,331.279,256.056,331.279z M263.46,324.125c0,0.002,0,0.004,0,0.006
	C263.46,324.129,263.46,324.127,263.46,324.125z M263.462,324.112c0,0.004-0.001,0.007-0.001,0.011
	C263.461,324.119,263.461,324.116,263.462,324.112z"/>
<g>
</g>
<g>
</g>
<g>
</g>
<g>
</g>
<g>
</g>
<g>
</g>
<g>
</g>
<g>
</g>
<g>
</g>
<g>
</g>
<g>
</g>
<g>
</g>
<g>
</g>
<g>
</g>
<g>
</g>
</svg>
