<?xml version="1.0" encoding="iso-8859-1"?>
<!-- Generator: Adobe Illustrator 19.0.0, SVG Export Plug-In . SVG Version: 6.00 Build 0)  -->
<svg version="1.1" id="Capa_1" xmlns="http://www.w3.org/2000/svg" xmlns:xlink="http://www.w3.org/1999/xlink" x="0px" y="0px"
	 viewBox="0 0 512 512" style="enable-background:new 0 0 512 512;" xml:space="preserve">
<path style="fill:#4CC7B3;" d="M451.596,239.363c2.169-9.917,9.914-17.662,19.832-19.832c14.949-3.27,23.85-18.685,19.207-33.267
	c-3.08-9.672-0.245-20.253,7.259-27.091c11.311-10.306,11.311-28.107,0-38.413l0,0c-7.504-6.836-10.339-17.417-7.259-27.091l0,0
	c4.643-14.581-4.258-29.997-19.207-33.267c-9.917-2.169-17.662-9.914-19.832-19.832c-3.27-14.949-18.685-23.85-33.267-19.207l0,0
	c-9.672,3.08-20.253,0.245-27.091-7.259l0,0c-10.306-11.311-28.106-11.311-38.413,0c-6.837,7.504-17.417,10.339-27.091,7.259
	c-14.581-4.643-29.997,4.258-33.267,19.207c-2.169,9.917-9.914,17.662-19.832,19.832l0,0c-14.949,3.27-23.85,18.685-19.207,33.267
	c3.08,9.672,0.245,20.253-7.259,27.091c-11.311,10.306-11.311,28.107,0,38.413l0,0c7.504,6.836,10.339,17.417,7.259,27.091l0,0
	c-4.643,14.581,4.258,29.997,19.207,33.267c9.917,2.169,17.662,9.914,19.832,19.832c3.27,14.949,18.685,23.85,33.267,19.207l0,0
	c9.672-3.08,20.253-0.245,27.091,7.259l0,0c10.306,11.311,28.106,11.311,38.413,0c6.837-7.504,17.417-10.339,27.091-7.259
	C432.911,263.212,448.326,254.311,451.596,239.363L451.596,239.363z"/>
<rect x="15.182" y="337.265" transform="matrix(0.7071 0.7071 -0.7071 0.7071 309.9779 24.2692)" style="fill:#BF944C;" width="221.023" height="98.093"/>
<path style="fill:#42AD9C;" d="M471.427,219.532c14.949-3.269,23.85-18.685,19.206-33.267c-3.08-9.672-0.245-20.253,7.259-27.091
	c4.774-4.349,7.524-10.034,8.269-15.927c-24.543-14.748-58.573-31.001-98.533-38.877c-7.876-39.96-24.129-73.99-38.877-98.533
	c-5.893,0.745-11.577,3.495-15.927,8.269c-6.836,7.504-17.417,10.339-27.091,7.259c-14.581-4.643-29.997,4.257-33.267,19.206
	L471.427,219.532z"/>
<path style="fill:#F9545B;" d="M430.366,212.842c1.591-7.271,7.269-12.949,14.54-14.54c10.96-2.397,17.486-13.699,14.082-24.391
	c-2.258-7.092-0.179-14.849,5.322-19.862c8.293-7.556,8.294-20.608,0-28.163l0,0c-5.501-5.013-7.58-12.77-5.322-19.862l0,0
	c3.405-10.69-3.121-21.993-14.082-24.391c-7.271-1.591-12.949-7.269-14.54-14.54c-2.397-10.96-13.699-17.486-24.391-14.082l0,0
	c-7.092,2.258-14.849,0.179-19.862-5.322l0,0c-7.556-8.294-20.607-8.293-28.163,0c-5.013,5.502-12.77,7.58-19.862,5.322
	c-10.69-3.405-21.993,3.121-24.391,14.082c-1.591,7.271-7.269,12.949-14.54,14.54l0,0c-10.96,2.397-17.486,13.699-14.082,24.391
	c2.258,7.092,0.179,14.849-5.322,19.862c-8.293,7.556-8.294,20.608,0,28.163l0,0c5.501,5.013,7.58,12.77,5.322,19.862l0,0
	c-3.404,10.69,3.121,21.993,14.082,24.391c7.271,1.591,12.949,7.269,14.54,14.54c2.397,10.96,13.699,17.486,24.391,14.082l0,0
	c7.092-2.258,14.849-0.179,19.862,5.322l0,0c7.556,8.294,20.608,8.293,28.163,0c5.013-5.501,12.77-7.58,19.862-5.322
	C416.667,230.327,427.969,223.802,430.366,212.842L430.366,212.842z"/>
<path style="fill:#E64047;" d="M444.906,198.302c10.96-2.397,17.485-13.699,14.082-24.39c-2.258-7.092-0.18-14.849,5.322-19.862
	c8.293-7.556,8.293-20.607,0-28.163l0,0c-1.816-1.654-3.25-3.612-4.288-5.742c-15.884-6.438-33.479-12.039-52.397-15.769
	c-3.731-18.918-9.331-36.513-15.769-52.397c-2.13-1.037-4.088-2.471-5.742-4.288l0,0c-7.556-8.293-20.607-8.293-28.163,0
	c-5.013,5.502-12.77,7.58-19.862,5.322c-10.69-3.404-21.993,3.121-24.39,14.082L444.906,198.302z"/>
<path style="fill:#E6B25B;" d="M499.127,169.161c14.96,9.467,17.309,30.342,4.79,42.861L212.023,503.917
	c-12.519,12.519-33.393,10.17-42.861-4.79c-34.537-54.578-90.858-181.219,28.944-301.021S444.549,134.624,499.127,169.161z"/>
<path style="fill:#CC9E51;" d="M397.947,232.992c11.398-30.566,16.108-62.769,13.999-95.713c-0.123-1.917-0.27-3.823-0.437-5.721
	c-60.96-14.409-138.518-8.34-213.404,66.547c-74.883,74.883-80.956,152.439-66.548,213.398c6.884,0.599,13.892,0.934,21.03,0.935
	c0.004,0,0.004,0,0.008,0c65.809,0,126.208-27.029,179.511-80.332C362.667,301.545,384.819,268.198,397.947,232.992z"/>
<path style="fill:#FDC464;" d="M342.839,12.873c-9.467-14.96-30.342-17.309-42.861-4.79L8.083,299.977
	c-12.519,12.519-10.17,33.393,4.79,42.861c54.578,34.537,181.219,90.858,301.021-28.944S377.376,67.451,342.839,12.873z"/>
<g>
	<path style="fill:#3B484A;" d="M167.408,292.76l-10.354-10.354c-3.017-3.017-3.017-7.91,0-10.927c3.017-3.017,7.91-3.017,10.927,0
		l10.354,10.354c3.017,3.017,3.017,7.91,0,10.927C175.318,295.777,170.426,295.777,167.408,292.76z"/>
	<path style="fill:#3B484A;" d="M281.834,178.336l-10.354-10.354c-3.017-3.017-3.017-7.91,0-10.927s7.91-3.017,10.927,0
		l10.354,10.354c3.017,3.017,3.017,7.91,0,10.927C289.744,181.353,284.851,181.353,281.834,178.336z"/>
	<path style="fill:#3B484A;" d="M207.25,252.875c-1.522-1.522-2.403-3.667-2.248-5.983c0.286-4.258,3.969-7.477,8.227-7.191
		c6.918,0.465,13.859-2.243,19.045-7.428c5.185-5.185,7.892-12.126,7.428-19.045c-0.286-4.258,2.934-7.941,7.191-8.227
		c4.258-0.286,7.941,2.934,8.227,7.192c0.763,11.367-3.581,22.668-11.919,31.006c-8.338,8.338-19.64,12.683-31.006,11.919
		C210.252,254.989,208.525,254.152,207.25,252.875z"/>
</g>
<g>
</g>
<g>
</g>
<g>
</g>
<g>
</g>
<g>
</g>
<g>
</g>
<g>
</g>
<g>
</g>
<g>
</g>
<g>
</g>
<g>
</g>
<g>
</g>
<g>
</g>
<g>
</g>
<g>
</g>
</svg>
