<?xml version="1.0" encoding="iso-8859-1"?>
<!-- Generator: Adobe Illustrator 19.0.0, SVG Export Plug-In . SVG Version: 6.00 Build 0)  -->
<svg version="1.1" id="Layer_1" xmlns="http://www.w3.org/2000/svg" xmlns:xlink="http://www.w3.org/1999/xlink" x="0px" y="0px"
	 viewBox="0 0 512 512" style="enable-background:new 0 0 512 512;" xml:space="preserve">
<path style="fill:#3E3D42;" d="M192.97,163.873C129.157,47.394,19.909,44.35,19.909,44.35C8.846,45.025,0.179,54.123,0.041,65.206
	c-1.321,106.703,29.454,152.99,44.19,168.985c7.473,39.362,34.95,52.12,59.247,50.636L192.97,163.873z"/>
<path style="fill:#1D1D1F;" d="M67.245,274.595c10.902,8.095,23.971,10.981,36.234,10.233l89.492-120.954
	c-8.587-15.675-18.001-29.278-27.858-41.114C110.526,152.949,72.266,209.189,67.245,274.595z"/>
<path style="fill:#FFC477;" d="M74.155,85.297c-17.137-7.679-32.287-11.269-42.318-13.199c-4.712-0.906-5.684,2.437-5.684,4.57
	c0.947,92.984,28.569,130.355,37.29,139.822l5.06,5.492l1.393,7.336c2.994,15.775,10.562,29.033,33.288,34.518l58.493-101.588
	C139.314,127.176,109.931,101.327,74.155,85.297z"/>
<path style="fill:#FFA733;" d="M73.072,240.367c4.43,10.747,12.945,19.325,30.112,23.469l58.493-101.588
	c-5.753-9.022-11.978-17.421-18.649-25.211C109.299,162.315,84.219,198.529,73.072,240.367z"/>
<path style="fill:#3E3D42;" d="M319.031,163.873C382.844,47.394,492.092,44.35,492.092,44.35
	c11.063,0.675,19.73,9.773,19.867,20.856c1.322,106.703-29.453,152.991-44.19,168.985c-7.473,39.362-34.95,52.12-59.247,50.636
	L319.031,163.873z"/>
<path style="fill:#1D1D1F;" d="M444.756,274.595c-10.902,8.095-23.971,10.981-36.234,10.233L319.03,163.874
	c8.587-15.675,18.001-29.278,27.858-41.114C401.475,152.949,439.735,209.189,444.756,274.595z"/>
<path style="fill:#FFC477;" d="M437.846,85.297c17.137-7.679,32.287-11.269,42.318-13.199c4.712-0.906,5.684,2.437,5.684,4.57
	c-0.947,92.984-28.569,130.355-37.29,139.822l-5.06,5.492l-1.393,7.336c-2.994,15.775-10.562,29.033-33.288,34.518l-58.493-101.588
	C372.687,127.176,402.07,101.327,437.846,85.297z"/>
<path style="fill:#FFA733;" d="M438.929,240.367c-4.43,10.747-12.945,19.325-30.112,23.469l-58.493-101.588
	c5.753-9.022,11.978-17.421,18.649-25.211C402.702,162.315,427.782,198.529,438.929,240.367z"/>
<path style="fill:#57565C;" d="M415.661,289.287c0,54.612-27.564,110.362-69.539,144.663
	c-35.787,15.878-143.934,14.311-178.073,0.391c-42.245-34.266-70.021-90.235-70.021-145.055
	c0-87.712,71.104-158.816,158.816-158.816S415.661,201.575,415.661,289.287z"/>
<g>
	<path style="fill:#3E3D42;" d="M135.098,289.287c0-81.44,61.304-148.552,140.282-157.734c-6.081-0.707-12.264-1.083-18.534-1.083
		c-87.712,0-158.816,71.104-158.816,158.816c0,54.82,27.775,110.787,70.021,145.055c25.347,20.56,44.594,9.72,20.982-14.815
		C155.964,385.169,135.098,336.799,135.098,289.287z"/>
	<path style="fill:#3E3D42;" d="M328.574,193.603c-15.656-11.77-34.11-19.565-53.363-22.544c-4.278-0.661-7.208-4.665-6.547-8.942
		c0.66-4.277,4.654-7.214,8.943-6.546c21.793,3.371,42.675,12.191,60.386,25.504c3.46,2.601,4.264,7.597,1.555,10.972
		C335.744,196.788,329.985,194.664,328.574,193.603z"/>
	<path style="fill:#3E3D42;" d="M352.316,217.275c-2.385-3.155-4.955-6.226-7.638-9.126c-2.939-3.178-2.746-8.136,0.433-11.075
		c3.178-2.939,8.137-2.745,11.074,0.433c3.032,3.279,5.937,6.748,8.634,10.314c2.61,3.452,2.051,8.538-1.523,10.978
		C358.803,221.866,353.857,219.314,352.316,217.275z"/>
</g>
<path style="fill:#FFDAAA;" d="M346.022,434.017c-12.86-3.481-23.35-11.486-28.502-26.635c-20.768-61.083-60.676-58.64-60.676-58.64
	s-39.908-2.443-60.676,58.64c-5.151,15.151-15.641,23.155-28.501,26.635c25.423,20.745,56.117,33.633,89.177,33.633
	C289.904,467.649,320.598,454.761,346.022,434.017z"/>
<g>
	<path style="fill:#FFC477;" d="M189.513,420.011c-5.605,7.252-13.182,11.661-21.845,14.006
		c25.422,20.745,56.117,33.633,89.177,33.633c6.27,0,12.455-0.466,18.535-1.358c0-0.004,0-0.008,0-0.013
		C242.698,461.481,213.05,444.285,189.513,420.011z"/>
	<path style="fill:#FFC477;" d="M215.141,299.06L215.141,299.06c0,0-26.576-20.565-59.02,15.778
		c0.485-0.542,48.942,8.451,51.653,8.451c7.309,0,13.235-5.926,13.235-13.235C221.009,305.472,218.68,301.435,215.141,299.06z"/>
	<path style="fill:#FFC477;" d="M299.783,299.06L299.783,299.06c0,0,26.576-20.565,59.02,15.778
		c-0.485-0.542-48.942,8.451-51.653,8.451c-7.309,0-13.235-5.926-13.235-13.235C293.915,305.472,296.244,301.435,299.783,299.06z"/>
</g>
<circle style="fill:#FFFFFF;" cx="179.368" cy="331.128" r="28.4"/>
<path style="fill:#2D2D30;" d="M179.371,343.859c-7.02,0-12.73-5.71-12.73-12.73c0-7.02,5.71-12.73,12.73-12.73
	s12.73,5.71,12.73,12.73C192.101,338.148,186.39,343.859,179.371,343.859z"/>
<circle style="fill:#FFFFFF;" cx="335.747" cy="331.128" r="28.4"/>
<path style="fill:#2D2D30;" d="M335.743,343.859c-7.02,0-12.73-5.71-12.73-12.73c0-7.02,5.71-12.73,12.73-12.73
	c7.02,0,12.731,5.71,12.731,12.729S342.762,343.859,335.743,343.859z"/>
<path style="fill:#3E3D42;" d="M279.852,385.594c0,12.707-10.301,21.786-23.008,21.786c-12.707,0-23.008-9.079-23.008-21.786
	c0-12.707,10.302-14.864,23.008-14.864C269.552,370.73,279.852,372.887,279.852,385.594z"/>
<path style="fill:#2D2D30;" d="M243.937,385.594c0-10.971,7.681-14.075,17.958-14.719c-1.626-0.102-3.314-0.144-5.05-0.144
	c-12.707,0-23.008,2.157-23.008,14.864c0,12.707,10.302,21.786,23.008,21.786c1.736,0,3.424-0.176,5.05-0.501
	C251.619,404.826,243.937,396.565,243.937,385.594z"/>
<g>
	<path style="fill:#1D1D1F;" d="M241.674,389.252c-2.059,0-4.075,0.836-5.538,2.299c-0.408,0.404-0.761,0.857-1.066,1.339
		c1.733,4.906,5.193,8.867,9.684,11.4c0.914-0.39,1.758-0.947,2.468-1.652c1.453-1.463,2.288-3.479,2.288-5.548
		c0-2.058-0.836-4.075-2.288-5.538C245.759,390.088,243.742,389.252,241.674,389.252z"/>
	<path style="fill:#1D1D1F;" d="M278.62,392.887c-0.303-0.48-0.653-0.931-1.056-1.337c-1.462-1.463-3.48-2.299-5.548-2.299
		c-2.059,0-4.075,0.836-5.538,2.299c-1.463,1.452-2.299,3.479-2.299,5.538c0,2.069,0.836,4.086,2.299,5.548
		c0.71,0.704,1.551,1.26,2.462,1.65C273.429,401.754,276.887,397.793,278.62,392.887z"/>
</g>
<g>
</g>
<g>
</g>
<g>
</g>
<g>
</g>
<g>
</g>
<g>
</g>
<g>
</g>
<g>
</g>
<g>
</g>
<g>
</g>
<g>
</g>
<g>
</g>
<g>
</g>
<g>
</g>
<g>
</g>
</svg>
