<?xml version="1.0" encoding="iso-8859-1"?>
<!-- Generator: Adobe Illustrator 19.0.0, SVG Export Plug-In . SVG Version: 6.00 Build 0)  -->
<svg version="1.1" id="Capa_1" xmlns="http://www.w3.org/2000/svg" xmlns:xlink="http://www.w3.org/1999/xlink" x="0px" y="0px"
	 viewBox="0 0 512.001 512.001" style="enable-background:new 0 0 512.001 512.001;" xml:space="preserve">
<path style="fill:#7A6CF7;" d="M382.964,253.927H129.037c-14.64,0-27.297-10.213-30.391-24.522l-25.17-116.413
	c-5.989-27.699,0.783-56.234,18.578-78.289S136.31,0,164.649,0h182.704c28.339,0,54.799,12.649,72.594,34.703
	c17.796,22.055,24.567,50.59,18.578,78.289l-25.171,116.412C410.261,243.715,397.605,253.927,382.964,253.927z M154.126,191.741
	h203.75l19.868-91.89c1.996-9.233-0.261-18.745-6.193-26.097S356.8,62.186,347.353,62.186H164.649
	c-9.446,0-18.266,4.216-24.198,11.568c-5.932,7.352-8.189,16.863-6.193,26.097L154.126,191.741z"/>
<path style="fill:#6959E2;" d="M423.006,184.771c-16.212-15.921-34.686-29.541-54.902-40.334l-10.228,47.304h-203.75l-10.228-47.304
	c-20.216,10.793-38.69,24.413-54.902,40.334l9.651,44.634c3.094,14.31,15.751,24.522,30.391,24.522h253.927
	c14.64,0,27.297-10.213,30.391-24.522L423.006,184.771z"/>
<path id="SVGCleanerId_0" style="fill:#7A6CF7;" d="M125.009,512h261.983c46.561-38.011,76.296-95.854,76.296-160.648
	c0-114.482-92.806-207.287-207.287-207.287S48.713,236.871,48.713,351.352C48.713,416.146,78.448,473.989,125.009,512z"/>
<g>
	<path id="SVGCleanerId_0_1_" style="fill:#7A6CF7;" d="M125.009,512h261.983c46.561-38.011,76.296-95.854,76.296-160.648
		c0-114.482-92.806-207.287-207.287-207.287S48.713,236.871,48.713,351.352C48.713,416.146,78.448,473.989,125.009,512z"/>
</g>
<path style="fill:#6959E2;" d="M256.001,144.065c-6.996,0-13.91,0.352-20.729,1.029c104.748,10.401,186.559,98.773,186.559,206.259
	c0,64.794-29.735,122.636-76.296,160.648h41.457c46.561-38.011,76.296-95.854,76.296-160.648
	C463.289,236.871,370.483,144.065,256.001,144.065z"/>
<path style="fill:#49D5FF;" d="M325.417,330.623H194.876c-10.215,0-17.654-9.683-15.022-19.552l9.36-35.099
	c3.63-13.611,15.956-23.082,30.043-23.082h81.778c14.087,0,26.414,9.47,30.043,23.082l9.36,35.099
	C343.071,320.941,335.632,330.623,325.417,330.623z"/>
<path style="fill:#2BB7FF;" d="M340.439,311.071l-9.36-35.099c-3.63-13.611-15.956-23.082-30.043-23.082h-31.093
	c14.087,0,26.414,9.47,30.043,23.082l9.36,35.099c2.632,9.87-4.807,19.552-15.022,19.552h31.093
	C335.632,330.623,343.071,320.941,340.439,311.071z"/>
<g>
</g>
<g>
</g>
<g>
</g>
<g>
</g>
<g>
</g>
<g>
</g>
<g>
</g>
<g>
</g>
<g>
</g>
<g>
</g>
<g>
</g>
<g>
</g>
<g>
</g>
<g>
</g>
<g>
</g>
</svg>
